<?xml version="1.0" encoding="UTF-8"?>
<!-- Performa — generato da build.mjs. Non modificare a mano. -->
<svg xmlns="http://www.w3.org/2000/svg" viewBox="0 0 512 512" role="img" aria-label="Performa">
  <rect width="512" height="512" rx="96" fill="#1B4D6E"/>
  <g transform="translate(87.04 87.0527) scale(0.8459)">
    <path d="M21.00,221.20 L21.00,248.14 L47.38,248.14 L47.38,221.20Z M85.06,166.19 L85.06,193.12 L190.58,193.12 L190.58,166.19Z M39.84,166.19 L39.30,167.34 L39.30,192.55 L39.84,193.12 L65.68,193.12 L65.68,166.19Z M45.76,111.17 L45.76,138.11 L190.58,138.11 L190.58,111.17Z M0.00,111.17 L0.00,138.11 L26.38,138.11 L26.38,111.17Z M19.38,56.16 L19.38,83.09 L45.76,83.09 L45.76,56.73 L44.68,56.16Z M315.48,13.75 L314.40,13.75 L304.71,9.17 L292.87,5.16 L288.56,4.58 L283.71,2.87 L281.02,2.87 L280.48,2.29 L277.79,2.29 L274.02,1.15 L264.33,0.57 L263.80,0.00 L94.75,0.00 L94.75,55.59 L94.21,56.16 L65.14,56.16 L65.14,59.60 L64.60,60.17 L64.60,76.79 L65.14,77.36 L65.14,83.09 L66.76,83.67 L188.96,83.67 L190.58,83.09 L190.58,56.73 L191.12,56.16 L281.56,119.77 L283.18,120.34 L284.79,122.06 L286.41,122.64 L298.79,131.81 L300.40,132.38 L302.02,134.10 L303.63,134.67 L316.02,143.84 L317.63,144.41 L324.09,149.57 L307.94,162.18 L279.95,182.23 L274.56,186.82 L269.18,190.26 L267.56,191.98 L262.18,195.42 L255.18,201.15 L248.18,205.73 L235.80,215.47 L191.12,248.14 L190.58,247.56 L190.58,221.20 L66.76,221.20 L66.76,248.14 L94.21,248.14 L94.75,248.71 L94.75,399.43 L155.59,399.43 L165.28,396.56 L169.58,394.27 L178.20,387.39 L181.43,383.38 L185.73,376.50 L188.43,369.63 L188.43,367.91 L189.50,365.04 L189.50,362.18 L190.04,361.60 L190.04,306.02 L190.58,305.44 L256.26,305.44 L256.80,304.87 L266.49,304.87 L267.03,304.30 L271.33,304.30 L271.87,303.72 L275.64,303.72 L276.18,303.15 L284.79,302.01 L285.33,301.43 L295.56,299.14 L306.86,295.13 L316.02,290.54 L317.09,290.54 L319.25,288.83 L320.32,288.83 L328.40,284.24 L338.63,277.36 L347.78,269.91 L358.01,260.17 L365.01,252.15 L374.16,239.54 L381.70,226.93 L381.70,225.79 L382.77,224.64 L388.69,211.46 L393.54,197.13 L393.54,195.42 L396.23,186.25 L397.85,174.21 L398.38,173.64 L398.38,169.63 L398.92,169.05 L398.92,162.75 L399.46,162.18 L399.46,143.27 L398.92,142.69 L398.92,136.39 L398.38,135.82 L398.38,131.81 L397.85,131.23 L396.77,121.49 L396.23,120.92 L394.08,110.03 L392.46,106.02 L392.46,104.30 L391.39,102.58 L391.39,100.86 L386.00,88.25 L386.00,87.11 L381.16,77.36 L373.62,64.76 L366.62,55.01 L354.24,41.26 L343.47,31.52 L326.24,19.48 L325.17,19.48 L324.09,18.34Z" fill="#F8FAFC"/>
  </g>
</svg>
